<svg width="16" height="16" viewBox="0 0 16 16" fill="none" xmlns="http://www.w3.org/2000/svg">
<path fill-rule="evenodd" clip-rule="evenodd" d="M1.7071 0.292886C1.31658 -0.0976391 0.683413 -0.0976391 0.292889 0.292886C-0.0976355 0.68341 -0.0976355 1.31658 0.292889 1.7071L6.58578 7.99999L0.292889 14.2929C-0.0976349 14.6834 -0.0976349 15.3166 0.292889 15.7071C0.683414 16.0976 1.31658 16.0976 1.7071 15.7071L8 9.41421L14.2929 15.7071C14.6834 16.0976 15.3166 16.0976 15.7071 15.7071C16.0976 15.3166 16.0976 14.6834 15.7071 14.2929L9.41421 7.99999L15.7071 1.7071C16.0976 1.31657 16.0976 0.68341 15.7071 0.292886C15.3166 -0.0976387 14.6834 -0.0976387 14.2929 0.292886L8 6.58578L1.7071 0.292886Z" fill="black"/>
</svg>
