<svg width="16" height="16" viewBox="0 0 16 16" fill="none" xmlns="http://www.w3.org/2000/svg">
<path fill-rule="evenodd" clip-rule="evenodd" d="M0.292896 0.292886C0.683421 -0.0976391 1.31659 -0.0976391 1.70711 0.292886L3.09437 1.68014C4.44905 0.627081 6.1513 0 8.00001 0C9.84872 0 11.551 0.62708 12.9056 1.68014L14.2929 0.292886C14.6834 -0.0976387 15.3166 -0.0976387 15.7071 0.292886C16.0976 0.68341 16.0976 1.31657 15.7071 1.7071L14.3199 3.09435C15.3729 4.44903 16 6.15129 16 8C16 9.84871 15.3729 11.551 14.3199 12.9056L15.7071 14.2929C16.0976 14.6834 16.0976 15.3166 15.7071 15.7071C15.3166 16.0976 14.6834 16.0976 14.2929 15.7071L12.9057 14.3199C11.551 15.3729 9.84872 16 8.00001 16C6.15129 16 4.44904 15.3729 3.09436 14.3199L1.70711 15.7071C1.31659 16.0976 0.683421 16.0976 0.292897 15.7071C-0.0976273 15.3166 -0.0976273 14.6834 0.292897 14.2929L1.68015 12.9056C0.627087 11.551 7.62939e-06 9.84871 7.62939e-06 8C7.62939e-06 6.15129 0.62709 4.44904 1.68015 3.09435L0.292896 1.7071C-0.0976279 1.31658 -0.0976279 0.68341 0.292896 0.292886ZM3.10926 4.52346C2.4108 5.50428 2.00001 6.70417 2.00001 8C2.00001 9.29583 2.4108 10.4957 3.10926 11.4765L6.58579 7.99999L3.10926 4.52346ZM4.52347 12.8907C5.50429 13.5892 6.70417 14 8.00001 14C9.29584 14 10.4957 13.5892 11.4765 12.8907L8 9.41421L4.52347 12.8907ZM12.8908 11.4765C13.5892 10.4957 14 9.29583 14 8C14 6.70417 13.5892 5.50428 12.8908 4.52346L9.41422 7.99999L12.8908 11.4765ZM11.4765 3.10925C10.4957 2.41079 9.29584 2 8.00001 2C6.70418 2 5.50429 2.41079 4.52348 3.10925L8 6.58578L11.4765 3.10925Z" fill="black"/>
</svg>
